<?xml version="1.0" encoding="UTF-8" standalone="no"?>
<svg width="37px" height="37px" viewBox="0 0 37 37" version="1.1" xmlns="http://www.w3.org/2000/svg" xmlns:xlink="http://www.w3.org/1999/xlink">
    <!-- Generator: Sketch 40.2 (33826) - http://www.bohemiancoding.com/sketch -->
    <title>Facebook</title>
    <desc>Created with Sketch.</desc>
    <defs>
        <polygon id="path-1" points="18.5180514 36.9180556 36.9837714 36.9180556 36.9837714 0.114633333 18.5180514 0.114633333 0.0523314286 0.114633333 0.0523314286 36.9180556"></polygon>
    </defs>
    <g id="Page-1" stroke="none" stroke-width="1" fill="none" fill-rule="evenodd">
        <g id="Facebook"></g>
        <g id="Group-5">
            <g id="Group-11" transform="translate(0.000000, 0.016878)">
                <mask id="mask-2" fill="white">
                    <use xlink:href="#path-1"></use>
                </mask>
                <g id="Clip-10"></g>
                <path d="M18.5523314,37.1146333 C28.7693176,37.1146333 37.0523314,28.8327072 37.0523314,18.6146333 C37.0523314,8.39873493 28.7693176,0.114633333 18.5523314,0.114633333 C8.3353453,0.114633333 0.0523314286,8.39873493 0.0523314286,18.6146333 C0.0523314286,28.8327072 8.3353453,37.1146333 18.5523314,37.1146333" id="Fill-9" fill="#EDEDED" mask="url(#mask-2)"></path>
            </g>
            <path d="M14.0634743,15.4175474 L15.97216,15.4175474 L15.97216,13.5685043 C15.97216,12.7538001 15.9927886,11.4954987 16.58776,10.7175807 C17.2131314,9.89313903 18.0730171,9.33160986 19.5506743,9.33160986 C21.9587886,9.33160986 22.9728457,9.67458625 22.9728457,9.67458625 L22.4962171,12.4930515 C22.4962171,12.4930515 21.7003886,12.2636793 20.95776,12.2636793 C20.2162171,12.2636793 19.5506743,12.5287557 19.5506743,13.2688057 L19.5506743,15.4175474 L22.5950171,15.4175474 L22.3833029,18.170014 L19.5506743,18.170014 L19.5506743,27.7344029 L15.97216,27.7344029 L15.97216,18.170014 L14.0634743,18.170014 L14.0634743,15.4175474 Z" id="Fill-12" fill="#333333"></path>
        </g>
    </g>
</svg>