<?xml version="1.0" encoding="UTF-8" standalone="no"?>
<svg width="37px" height="37px" viewBox="0 0 37 37" version="1.1" xmlns="http://www.w3.org/2000/svg" xmlns:xlink="http://www.w3.org/1999/xlink">
    <!-- Generator: Sketch 40.2 (33826) - http://www.bohemiancoding.com/sketch -->
    <title>Instagram</title>
    <desc>Created with Sketch.</desc>
    <defs>
        <polygon id="path-1" points="18.46572 36.9180556 0 36.9180556 0 0.114633333 18.46572 0.114633333 36.93144 0.114633333 36.93144 36.9180556"></polygon>
    </defs>
    <g id="Page-1" stroke="none" stroke-width="1" fill="none" fill-rule="evenodd">
        <g id="Instagram"></g>
        <g>
            <g id="Group-3" transform="translate(0.000000, 0.016987)">
                <mask id="mask-2" fill="white">
                    <use xlink:href="#path-1"></use>
                </mask>
                <g id="Clip-2"></g>
                <path d="M18.4997829,36.9830135 C28.7178567,36.9830135 36.9997829,28.6999996 36.9997829,18.4830135 C36.9997829,8.26602735 28.7178567,-0.0169865278 18.4997829,-0.0169865278 C8.28170901,-0.0169865278 -0.000217142858,8.26602735 -0.000217142858,18.4830135 C-0.000217142858,28.6999996 8.28170901,36.9830135 18.4997829,36.9830135" id="Fill-1" fill="#EDEDED" mask="url(#mask-2)"></path>
            </g>
            <path d="M18.5436743,9.42985042 C16.0280743,9.42985042 15.7132171,9.44066986 14.7252171,9.48502958 C13.7393886,9.53047125 13.0662457,9.68627125 12.4767029,9.91456153 C11.8676171,10.1504254 11.3519029,10.4652713 10.8361886,10.9791949 C10.32156,11.4920365 10.0056171,12.0070421 9.76893143,12.6140129 C9.53984571,13.2004268 9.38241714,13.8712324 9.33790286,14.8536379 C9.29338857,15.8382074 9.28253143,16.1530532 9.28253143,18.6588365 C9.28253143,21.1657018 9.29338857,21.4794657 9.33790286,22.4640351 C9.38241714,23.4464407 9.53984571,24.1172463 9.76893143,24.7047421 C10.0056171,25.3117129 10.32156,25.8267185 10.8361886,26.3395601 C11.3519029,26.8524018 11.8676171,27.1683296 12.4767029,27.4041935 C13.0662457,27.6324838 13.7393886,27.7882838 14.7252171,27.8326435 C15.7132171,27.8780851 16.0280743,27.8889046 18.5436743,27.8889046 C21.0592743,27.8889046 21.3741314,27.8780851 22.3621314,27.8326435 C23.34796,27.7882838 24.0211029,27.6324838 24.6106457,27.4041935 C25.2197314,27.1683296 25.7354457,26.8524018 26.25116,26.3395601 C26.7657886,25.8267185 27.0817314,25.3117129 27.3184171,24.7047421 C27.5475029,24.1172463 27.7049314,23.4464407 27.7494457,22.4640351 C27.79396,21.4794657 27.8048171,21.1657018 27.8048171,18.6588365 C27.8048171,16.1530532 27.79396,15.8382074 27.7494457,14.8536379 C27.7049314,13.8712324 27.5475029,13.2004268 27.3184171,12.6140129 C27.0817314,12.0070421 26.7657886,11.4920365 26.25116,10.9791949 C25.7354457,10.4652713 25.2197314,10.1504254 24.6106457,9.91456153 C24.0211029,9.68627125 23.34796,9.53047125 22.3621314,9.48502958 C21.3741314,9.44066986 21.0592743,9.42985042 18.5436743,9.42985042 M18.5436743,11.092799 C21.0169314,11.092799 21.3089886,11.1025365 22.2861314,11.1468963 C23.1894457,11.1880101 23.6791029,11.3384004 24.0059029,11.463906 C24.4380171,11.6316074 24.74636,11.8317671 25.0709886,12.1552685 C25.3945314,12.4776879 25.5953886,12.7849601 25.7636743,13.215574 C25.8907029,13.5412393 26.0416171,14.0302782 26.0828743,14.929374 C26.1273886,15.903124 26.1360743,16.195249 26.1360743,18.6588365 C26.1360743,21.123506 26.1273886,21.415631 26.0828743,22.388299 C26.0416171,23.2884768 25.8907029,23.7775157 25.7636743,24.102099 C25.5953886,24.5327129 25.3945314,24.8410671 25.0709886,25.1634865 C24.74636,25.4869879 24.4380171,25.6860657 24.0059029,25.8537671 C23.6791029,25.9803546 23.1894457,26.1307449 22.2861314,26.1718588 C21.3100743,26.2162185 21.0169314,26.225956 18.5436743,26.225956 C16.0704171,26.225956 15.7772743,26.2162185 14.8012171,26.1718588 C13.8979029,26.1307449 13.4082457,25.9803546 13.0814457,25.8537671 C12.6493314,25.6860657 12.3409886,25.4869879 12.01636,25.1634865 C11.6928171,24.8410671 11.49196,24.5327129 11.3236743,24.102099 C11.1966457,23.7775157 11.0457314,23.2884768 11.0044743,22.388299 C10.95996,21.415631 10.9512743,21.123506 10.9512743,18.6588365 C10.9512743,16.195249 10.95996,15.903124 11.0044743,14.929374 C11.0457314,14.0302782 11.1966457,13.5412393 11.3236743,13.215574 C11.49196,12.7849601 11.6928171,12.4776879 12.01636,12.1552685 C12.3409886,11.8317671 12.6493314,11.6316074 13.0814457,11.463906 C13.4082457,11.3384004 13.8979029,11.1880101 14.8012171,11.1468963 C15.77836,11.1025365 16.0704171,11.092799 18.5436743,11.092799" id="Fill-4" fill="#333333"></path>
            <path d="M18.5436743,21.7355619 C16.8391029,21.7355619 15.4569886,20.3582467 15.4569886,18.6595939 C15.4569886,16.9598592 16.8391029,15.5825439 18.5436743,15.5825439 C20.2482457,15.5825439 21.63036,16.9598592 21.63036,18.6595939 C21.63036,20.3582467 20.2482457,21.7355619 18.5436743,21.7355619 M18.5436743,13.9195953 C15.9173314,13.9195953 13.7882457,16.0412883 13.7882457,18.6595939 C13.7882457,21.2768175 15.9173314,23.3985106 18.5436743,23.3985106 C21.1700171,23.3985106 23.2991029,21.2768175 23.2991029,18.6595939 C23.2991029,16.0412883 21.1700171,13.9195953 18.5436743,13.9195953" id="Fill-6" fill="#333333"></path>
            <path d="M24.59892,13.7325271 C24.59892,14.3438257 24.1016629,14.8404382 23.4871486,14.8404382 C22.87372,14.8404382 22.3764629,14.3438257 22.3764629,13.7325271 C22.3764629,13.1212285 22.87372,12.624616 23.4871486,12.624616 C24.1016629,12.624616 24.59892,13.1212285 24.59892,13.7325271" id="Fill-8" fill="#333333"></path>
        </g>
    </g>
</svg>