<?xml version="1.0" encoding="UTF-8" standalone="no"?>
<svg width="37px" height="37px" viewBox="0 0 37 37" version="1.1" xmlns="http://www.w3.org/2000/svg" xmlns:xlink="http://www.w3.org/1999/xlink">
    <!-- Generator: Sketch 40.2 (33826) - http://www.bohemiancoding.com/sketch -->
    <title>Pinterest</title>
    <desc>Created with Sketch.</desc>
    <defs></defs>
    <g id="Page-1" stroke="none" stroke-width="1" fill="none" fill-rule="evenodd">
        <g id="Pinterest"></g>
        <g id="Group-6">
            <path d="M37.0263829,18.4995657 C37.0263829,8.28366731 28.743369,-0.000434285714 18.5263829,-0.000434285714 C8.30939673,-0.000434285714 0.0263828571,8.28366731 0.0263828571,18.4995657 C0.0263828571,28.7176396 8.30939673,36.9995657 18.5263829,36.9995657 C28.743369,36.9995657 37.0263829,28.7176396 37.0263829,18.4995657 Z" id="Fill-1" fill="#EDEDED"></path>
            <path d="M18.4926457,9.18405714 C13.3941314,9.18405714 9.25973143,13.3173714 9.25973143,18.4169714 C9.25973143,22.1974286 11.5332171,25.4448 14.7871029,26.8725143 C14.75996,26.2286857 14.78276,25.4545714 14.9467029,24.7532 C15.12476,24.0040571 16.1344743,19.722 16.1344743,19.722 C16.1344743,19.722 15.8402457,19.1324571 15.8402457,18.2617143 C15.8402457,16.8926286 16.6339029,15.8709714 17.6208171,15.8709714 C18.4600743,15.8709714 18.8661314,16.5017714 18.8661314,17.2574286 C18.8661314,18.1021143 18.3276171,19.3637143 18.05076,20.5341143 C17.8195029,21.5134286 18.5425886,22.3114286 19.5077886,22.3114286 C21.2568743,22.3114286 22.4348743,20.0650857 22.4348743,17.4029143 C22.4348743,15.3802286 21.0723029,13.8656571 18.5936171,13.8656571 C15.79356,13.8656571 14.0488171,15.9534857 14.0488171,18.2866857 C14.0488171,19.0912 14.2855029,19.6579429 14.6568171,20.0976571 C14.82836,20.2996 14.85116,20.3810286 14.7892743,20.6122857 C14.7458457,20.7816571 14.6437886,21.1920571 14.6014457,21.3527429 C14.53956,21.5872571 14.3506457,21.6708571 14.1400171,21.584 C12.8491029,21.0574286 12.2487029,19.6449143 12.2487029,18.0576 C12.2487029,15.4345143 14.4603029,12.2892 18.8465886,12.2892 C22.3719029,12.2892 24.6920743,14.8406286 24.6920743,17.5777143 C24.6920743,21.2007429 22.67916,23.9063429 19.7097314,23.9063429 C18.7141314,23.9063429 17.7760743,23.3667429 17.4557886,22.7554857 C17.4557886,22.7554857 16.91836,24.8824 16.8054457,25.2928 C16.6100171,26.0050286 16.22676,26.7161714 15.8760743,27.2709714 C16.7066457,27.5163429 17.5839029,27.6498857 18.4926457,27.6498857 C23.59116,27.6498857 27.72556,23.5154857 27.72556,18.4169714 C27.72556,13.3173714 23.59116,9.18405714 18.4926457,9.18405714" id="Fill-3" fill="#333333"></path>
        </g>
    </g>
</svg>