<?xml version="1.0" encoding="UTF-8" standalone="no"?>
<svg width="37px" height="37px" viewBox="0 0 37 37" version="1.1" xmlns="http://www.w3.org/2000/svg" xmlns:xlink="http://www.w3.org/1999/xlink">
    <!-- Generator: Sketch 40.2 (33826) - http://www.bohemiancoding.com/sketch -->
    <title>Twitter</title>
    <desc>Created with Sketch.</desc>
    <defs></defs>
    <g id="Page-1" stroke="none" stroke-width="1" fill="none" fill-rule="evenodd">
        <g id="Twitter"></g>
        <g id="Group-7">
            <path d="M37.0003257,18.4995657 C37.0003257,8.28366731 28.7173118,-0.000434285714 18.5003257,-0.000434285714 C8.28333959,-0.000434285714 0.000325714286,8.28366731 0.000325714286,18.4995657 C0.000325714286,28.7176396 8.28333959,36.9995657 18.5003257,36.9995657 C28.7173118,36.9995657 37.0003257,28.7176396 37.0003257,18.4995657 Z" id="Fill-5" fill="#EDEDED"></path>
            <path d="M27.7302286,13.6282114 C27.0505714,13.93004 26.3177143,14.1341543 25.5512,14.2253543 C26.3350857,13.7563257 26.9365714,13.0126114 27.2188571,12.1266686 C26.486,12.56204 25.6749714,12.8768971 24.8085714,13.0462686 C24.1180571,12.3090686 23.1311429,11.8487257 22.0389143,11.8487257 C19.9445714,11.8487257 18.2454286,13.5478686 18.2454286,15.6432971 C18.2454286,15.9407829 18.278,16.2295829 18.3431429,16.5075257 C15.1891429,16.3490114 12.3934286,14.8398686 10.5205714,12.5414114 C10.1937714,13.1048971 10.0070286,13.7563257 10.0070286,14.4511829 C10.0070286,15.7670686 10.6769143,16.9287829 11.6953143,17.6095257 C11.0732,17.5910686 10.488,17.41844 9.97554286,17.1361543 L9.97554286,17.18284 C9.97554286,19.02204 11.2838286,20.5561543 13.0209714,20.9035829 C12.7017714,20.9926114 12.3673714,21.0371257 12.0199429,21.0371257 C11.7756571,21.0371257 11.5368,21.0143257 11.3066286,20.9698114 C11.7886857,22.4767829 13.1903429,23.5755257 14.8514857,23.6037543 C13.5518857,24.6221543 11.9157143,25.2290686 10.1384,25.2290686 C9.83222857,25.2290686 9.52931429,25.2116971 9.23291429,25.1769543 C10.9125143,26.2518114 12.9069714,26.88044 15.0501714,26.88044 C22.0313143,26.88044 25.8476,21.0990114 25.8476,16.0840971 C25.8476,15.9190686 25.8443429,15.75404 25.8367429,15.5933543 C26.5782857,15.0570114 27.2232,14.3892971 27.7302286,13.6282114" id="Fill-7" fill="#333333"></path>
        </g>
    </g>
</svg>