<?xml version="1.0" encoding="utf-8"?>
<!-- Generator: Adobe Illustrator 16.0.0, SVG Export Plug-In . SVG Version: 6.00 Build 0)  -->
<!DOCTYPE svg PUBLIC "-//W3C//DTD SVG 1.1//EN" "http://www.w3.org/Graphics/SVG/1.1/DTD/svg11.dtd">
<svg version="1.1" id="Layer_1" xmlns="http://www.w3.org/2000/svg" xmlns:xlink="http://www.w3.org/1999/xlink" x="0px" y="0px"
	 width="30px" height="30px" viewBox="0 0 30 30" enable-background="new 0 0 30 30" xml:space="preserve">
<title>Heart</title>
<desc>Created with Sketch.</desc>
<path d="M15.111,7.372c-6.887-7.492-21.119,3.966,0,17.628C36.23,11.338,21.998-0.121,15.111,7.372z M15.111,22.611
	C7.326,17.279,5.359,12.503,6.174,9.743C6.656,8.11,8.187,7.014,9.983,7.014c1.335,0,2.634,0.613,3.656,1.725l1.472,1.602
	l1.473-1.602c1.023-1.112,2.322-1.725,3.656-1.725c1.797,0,3.326,1.097,3.809,2.729C24.863,12.503,22.898,17.279,15.111,22.611z"/>
</svg>
