<?xml version="1.0" encoding="UTF-8" standalone="no"?>
<svg width="18px" height="18px" viewBox="0 0 18 18" version="1.1" xmlns="http://www.w3.org/2000/svg" xmlns:xlink="http://www.w3.org/1999/xlink">
    <!-- Generator: Sketch 40.2 (33826) - http://www.bohemiancoding.com/sketch -->
    <title>Help</title>
    <desc>Created with Sketch.</desc>
    <defs>
        <circle id="path-1" cx="9" cy="9" r="7"></circle>
        <mask id="mask-2" maskContentUnits="userSpaceOnUse" maskUnits="objectBoundingBox" x="0" y="0" width="14" height="14" fill="white">
            <use xlink:href="#path-1"></use>
        </mask>
    </defs>
    <g id="Page-1" stroke="none" stroke-width="1" fill="none" fill-rule="evenodd">
        <g id="Help">
            <use id="Oval-4" stroke="#8C8C8C" mask="url(#mask-2)" stroke-width="2" xlink:href="#path-1"></use>
            <path d="M8.04631579,10.0617895 C8.04631579,9.80915663 8.07999966,9.59442194 8.14736842,9.41757895 C8.21473718,9.24073596 8.32842025,9.07652707 8.48842105,8.92494737 C8.72421171,8.69757781 8.94105164,8.49968505 9.13894737,8.33126316 C9.33684309,8.16284126 9.50736771,8.00494811 9.65052632,7.85757895 C9.79368493,7.71020979 9.90526276,7.57126381 9.98526316,7.44073684 C10.0652636,7.31020987 10.1052632,7.17336914 10.1052632,7.03021053 C10.1052632,6.7523144 10.0189482,6.53547446 9.84631579,6.37968421 C9.67368335,6.22389396 9.45684341,6.146 9.19578947,6.146 C8.79999802,6.146 8.4989484,6.25547259 8.29263158,6.47442105 C8.08631476,6.69336952 7.97052644,6.95863002 7.94526316,7.27021053 L6,7.14389474 C6.09263204,6.25125869 6.42104981,5.57126549 6.98526316,5.10389474 C7.54947651,4.63652398 8.27367979,4.40284211 9.15789474,4.40284211 C9.54526509,4.40284211 9.90947198,4.45547316 10.2505263,4.56073684 C10.5915807,4.66600053 10.8926303,4.82389368 11.1536842,5.03442105 C11.4147381,5.24494842 11.6210519,5.50599844 11.7726316,5.81757895 C11.9242113,6.12915945 12,6.48705061 12,6.89126316 C12,7.13547491 11.9747371,7.35652533 11.9242105,7.55442105 C11.873684,7.75231678 11.787369,7.94810429 11.6652632,8.14178947 C11.5431573,8.33547465 11.3831589,8.53126217 11.1852632,8.72915789 C10.9873674,8.92705362 10.7368436,9.14389356 10.4336842,9.37968421 C10.239999,9.53126392 10.109474,9.67863086 10.0421053,9.82178947 C9.97473651,9.96494808 9.94105263,10.1081045 9.94105263,10.2512632 L9.94105263,10.6175789 L8.04631579,10.6175789 L8.04631579,10.0617895 Z M7.83157895,12.4870526 C7.83157895,12.3270518 7.86105234,12.1754744 7.92,12.0323158 C7.97894766,11.8891572 8.06105211,11.7649479 8.16631579,11.6596842 C8.27157947,11.5544205 8.39578876,11.4723161 8.53894737,11.4133684 C8.68210598,11.3544208 8.83368341,11.3249474 8.99368421,11.3249474 C9.15368501,11.3249474 9.30526244,11.3544208 9.44842105,11.4133684 C9.59157966,11.4723161 9.71578895,11.5544205 9.82105263,11.6596842 C9.92631632,11.7649479 10.0084208,11.8891572 10.0673684,12.0323158 C10.1263161,12.1754744 10.1557895,12.3270518 10.1557895,12.4870526 C10.1557895,12.6470534 10.1263161,12.7986309 10.0673684,12.9417895 C10.0084208,13.0849481 9.92631632,13.2091574 9.82105263,13.3144211 C9.71578895,13.4196847 9.59157966,13.5017892 9.44842105,13.5607368 C9.30526244,13.6196845 9.15368501,13.6491579 8.99368421,13.6491579 C8.83368341,13.6491579 8.68210598,13.6196845 8.53894737,13.5607368 C8.39578876,13.5017892 8.27157947,13.4196847 8.16631579,13.3144211 C8.06105211,13.2091574 7.97894766,13.0849481 7.92,12.9417895 C7.86105234,12.7986309 7.83157895,12.6470534 7.83157895,12.4870526 L7.83157895,12.4870526 Z" id="?" fill="#8C8C8C"></path>
        </g>
    </g>
</svg>