<?xml version="1.0" encoding="UTF-8" standalone="no"?>
<svg width="18px" height="18px" viewBox="0 0 18 18" version="1.1" xmlns="http://www.w3.org/2000/svg" xmlns:xlink="http://www.w3.org/1999/xlink">
    <!-- Generator: Sketch 40.2 (33826) - http://www.bohemiancoding.com/sketch -->
    <title>Info</title>
    <desc>Created with Sketch.</desc>
    <defs>
        <circle id="path-1" cx="9" cy="9" r="7"></circle>
        <mask id="mask-2" maskContentUnits="userSpaceOnUse" maskUnits="objectBoundingBox" x="0" y="0" width="14" height="14" fill="white">
            <use xlink:href="#path-1"></use>
        </mask>
        <path d="M10.3571429,12.2071117 L10.2268304,12.7401588 C9.83589299,12.8946031 9.52325103,13.0120452 9.2905118,13.0930212 C9.05777328,13.1739971 8.78695914,13.214217 8.47860708,13.214217 C8.00508506,13.214217 7.636671,13.0983838 7.37390112,12.8677898 C7.11113125,12.6366597 6.97974652,12.3433228 6.97974652,11.9877791 C6.97974652,11.8499593 6.9893992,11.7083852 7.00924092,11.5641298 C7.02908287,11.4198745 7.06072236,11.2568503 7.10416018,11.0750563 L7.59323375,9.3450657 C7.636671,9.17936024 7.67367342,9.02223455 7.70316782,8.87368863 C7.73319846,8.7262159 7.74767754,8.59054108 7.74767754,8.46827286 C7.74767754,8.24733153 7.70209535,8.09288702 7.61093025,8.00601252 C7.51976514,7.9191373 7.34601543,7.87516382 7.08807167,7.87516382 C6.96151343,7.87516382 6.83173741,7.89554149 6.69927993,7.93468957 C6.56628622,7.97383622 6.45259806,8.01191111 6.35714286,8.04730482 L6.48799163,7.51372154 C6.80814175,7.38340907 7.11434866,7.27186557 7.40714989,7.17909176 C7.69995041,7.08631795 7.97666313,7.03966329 8.23836054,7.03966329 C8.70866442,7.03966329 9.0717154,7.15335101 9.32644175,7.38072789 C9.58116737,7.60810405 9.70879866,7.90304951 9.70879866,8.26663745 C9.70879866,8.34171405 9.70021817,8.47417146 9.68252167,8.66347345 C9.66482445,8.85331095 9.63211264,9.02706067 9.58438478,9.18525883 L9.09745616,10.9088146 C9.05777328,11.0471706 9.02184333,11.2053687 8.9907395,11.3834084 C8.95856392,11.5603762 8.94301236,11.6955148 8.94301236,11.7861437 C8.94301236,12.0151285 8.99395763,12.1711817 9.09638369,12.2543026 C9.19934669,12.3374242 9.37685078,12.3787165 9.62889522,12.3787165 C9.74740978,12.3787165 9.88201214,12.3578018 10.0316298,12.3165095 C10.1812475,12.2752172 10.2901098,12.238751 10.3571429,12.2071117 L10.3571429,12.2071117 Z M10.3835392,5.22836795 C10.3835392,5.50783696 10.2850666,5.74638167 10.0871868,5.94251234 C9.88977422,6.1396384 9.65175878,6.23795358 9.37360775,6.23795358 C9.09452336,6.23795358 8.85604125,6.1396384 8.65629535,5.94251234 C8.45701612,5.74638167 8.35714286,5.50783696 8.35714286,5.22836795 C8.35714286,4.94939329 8.45701612,4.71034755 8.65629535,4.51172507 C8.85557458,4.31309592 9.09452336,4.21428571 9.37360775,4.21428571 C9.65175878,4.21428571 9.88977422,4.31359695 10.0871868,4.51172507 C10.2850666,4.71034755 10.3835392,4.94939329 10.3835392,5.22836795 L10.3835392,5.22836795 Z" id="path-3"></path>
    </defs>
    <g id="Page-1" stroke="none" stroke-width="1" fill="none" fill-rule="evenodd">
        <g id="Info">
            <use id="Oval-4" stroke="#8C8C8C" mask="url(#mask-2)" stroke-width="2" xlink:href="#path-1"></use>
            <mask id="mask-4" fill="white">
                <use xlink:href="#path-3"></use>
            </mask>
            <use id="Clip-2" fill="#8C8C8C" xlink:href="#path-3"></use>
        </g>
    </g>
</svg>