<?xml version="1.0" encoding="UTF-8" standalone="no"?>
<svg width="24px" height="23px" viewBox="0 0 24 23" version="1.1" xmlns="http://www.w3.org/2000/svg" xmlns:xlink="http://www.w3.org/1999/xlink">
    <!-- Generator: Sketch 41.2 (35397) - http://www.bohemiancoding.com/sketch -->
    <title>Group 21</title>
    <desc>Created with Sketch.</desc>
    <defs></defs>
    <g id="Symbols" stroke="none" stroke-width="1" fill="none" fill-rule="evenodd">
        <g id="Speak-to-a-Rep" transform="translate(-576.000000, -173.000000)" fill="#666666">
            <g id="Group-3" transform="translate(453.000000, 173.000000)">
                <g id="Phone-Icon" transform="translate(123.000000, 0.000000)">
                    <g id="Group-21">
                        <g id="Page-1">
                            <path d="M2.42416552,4.71155 C2.18995862,5.58226429 2.07078621,6.48419286 2.07078621,7.39269286 C2.07078621,8.30119286 2.18995862,9.20394286 2.42416552,10.0738357 L3.22361379,9.86272857 C3.00844138,9.06101429 2.89837241,8.22972857 2.89837241,7.39269286 C2.89837241,6.55565714 3.00844138,5.72437143 3.22361379,4.92347857 L2.42416552,4.71155 Z" id="Fill-1"></path>
                            <path d="M20.1364138,4.923725 C20.3524138,5.72461786 20.4616552,6.55508214 20.4616552,7.39293929 C20.4616552,8.229975 20.3524138,9.06126071 20.1364138,9.86215357 L20.9358621,10.0749036 C21.1708966,9.20418929 21.2892414,8.30226071 21.2892414,7.39293929 C21.2892414,6.48361786 21.1708966,5.58168929 20.9358621,4.710975 L20.1364138,4.923725 Z" id="Fill-3"></path>
                            <path d="M15.8045793,21.2395964 L7.5552,21.2395964 C7.10002759,21.2395964 6.73009655,20.8724179 6.73009655,20.4198107 L6.73009655,19.3264893 L16.6305103,19.3264893 L16.6305103,20.4198107 C16.6305103,20.8724179 16.2597517,21.2395964 15.8045793,21.2395964 L15.8045793,21.2395964 Z M6.73092414,17.6836321 L16.6305103,17.6836321 L16.6305103,4.10706071 L6.73092414,4.10706071 L6.73092414,17.6836321 Z M7.5552,1.642775 L15.8045793,1.642775 C16.2597517,1.642775 16.6305103,2.00995357 16.6305103,2.46256071 L16.6305103,2.46420357 L6.73009655,2.46420357 L6.73009655,2.46256071 C6.73009655,2.00995357 7.10002759,1.642775 7.5552,1.642775 L7.5552,1.642775 Z M15.8045793,-8.21428575e-05 L7.5552,-8.21428575e-05 C6.1872,-8.21428575e-05 5.07492414,1.10473929 5.07492414,2.46256071 L5.07492414,20.4198107 C5.07492414,21.7776321 6.1872,22.8824536 7.5552,22.8824536 L15.8045793,22.8824536 C17.1725793,22.8824536 18.2856828,21.7776321 18.2856828,20.4198107 L18.2856828,2.46256071 C18.2856828,1.10473929 17.1725793,-8.21428575e-05 15.8045793,-8.21428575e-05 L15.8045793,-8.21428575e-05 Z" id="Fill-5"></path>
                            <path d="M22.9085793,3.96635 L22.109131,4.1791 C22.3905103,5.22067143 22.5320276,6.30249286 22.5320276,7.39252857 C22.5320276,8.48338571 22.3905103,9.56438571 22.109131,10.6067786 L22.9085793,10.8195286 C23.2081655,9.70813571 23.3596138,8.55485 23.3596138,7.39252857 C23.3596138,6.23102857 23.2081655,5.07774286 22.9085793,3.96635" id="Fill-7"></path>
                            <path d="M0.451365517,3.96676071 C0.15177931,5.078975 0.000331034476,6.23226071 0.000331034476,7.39293929 C0.000331034476,8.55279643 0.15177931,9.70608214 0.451365517,10.8191179 L1.25081379,10.6071893 C0.969434483,9.56315357 0.827917241,8.48215357 0.827917241,7.39293929 C0.827917241,6.303725 0.969434483,5.222725 1.25081379,4.17868929 L0.451365517,3.96676071 Z" id="Fill-9"></path>
                        </g>
                    </g>
                </g>
            </g>
        </g>
    </g>
</svg>