<svg id="Layer_1" data-name="Layer 1" xmlns="http://www.w3.org/2000/svg" viewBox="0 0 45.64 49.44"><defs><style>.cls-1{fill:#4873bb;}</style></defs><title>DOTS_LOADER</title><path class="cls-1" d="M113.9,66.42a6.82,6.82,0,1,1-6.81-6.82A6.82,6.82,0,0,1,113.9,66.42Zm-6.81,35a3.8,3.8,0,1,0,3.79,3.81A3.8,3.8,0,0,0,107.09,101.45ZM129,85.84a2.48,2.48,0,1,0-2.48,2.48A2.48,2.48,0,0,0,129,85.84Zm-37,0a4.34,4.34,0,1,0-4.34,4.34A4.34,4.34,0,0,0,92,85.84Zm30.18-15.11a2,2,0,1,0,0,2.77A1.95,1.95,0,0,0,122.19,70.72ZM96.51,96.42a4.45,4.45,0,1,0,0,6.29A4.48,4.48,0,0,0,96.51,96.42Zm26.12,5a2.55,2.55,0,1,0-3.61,0A2.57,2.57,0,0,0,122.63,101.37Zm-26-26a4.6,4.6,0,1,0-6.51,0A4.61,4.61,0,0,0,96.62,75.37Z" transform="translate(-83.33 -59.61)"/></svg>