<?xml version="1.0" encoding="utf-8"?>
<!-- Generator: Adobe Illustrator 16.0.0, SVG Export Plug-In . SVG Version: 6.00 Build 0)  -->
<!DOCTYPE svg PUBLIC "-//W3C//DTD SVG 1.1//EN" "http://www.w3.org/Graphics/SVG/1.1/DTD/svg11.dtd">
<svg version="1.1" id="Layer_1" xmlns="http://www.w3.org/2000/svg" xmlns:xlink="http://www.w3.org/1999/xlink" x="0px" y="0px"
	 width="30px" height="30px" viewBox="0 0 30 30" enable-background="new 0 0 30 30" xml:space="preserve">
<title>Search</title>
<desc>Created with Sketch.</desc>
<path d="M21.663,20.222c1.487-1.807,2.378-4.118,2.378-6.638c0-5.776-4.683-10.458-10.458-10.458S3.124,7.808,3.124,13.583
	s4.683,10.458,10.458,10.458c2.527,0,4.792-0.857,6.6-2.349l4.036,4.041l1.453-1.453L21.663,20.222z M13.499,21.958
	c-4.625,0-8.375-3.749-8.375-8.375c0-4.625,3.75-8.375,8.375-8.375c4.625,0,8.375,3.75,8.375,8.375
	C21.873,18.209,18.123,21.958,13.499,21.958z"/>
</svg>
