<?xml version="1.0" encoding="utf-8"?>
<!-- Generator: Adobe Illustrator 16.0.0, SVG Export Plug-In . SVG Version: 6.00 Build 0)  -->
<!DOCTYPE svg PUBLIC "-//W3C//DTD SVG 1.1//EN" "http://www.w3.org/Graphics/SVG/1.1/DTD/svg11.dtd">
<svg version="1.1" id="Layer_1" xmlns="http://www.w3.org/2000/svg" xmlns:xlink="http://www.w3.org/1999/xlink" x="0px" y="0px"
	 width="30px" height="30px" viewBox="0 0 30 30" enable-background="new 0 0 30 30" xml:space="preserve">
<title>Wishlist-Filled</title>
<desc>Created with Sketch.</desc>
<g id="Oval-3_1_">
	<path fill="#F90D0D" d="M15,29.917c-8.227,0-14.917-6.69-14.917-14.917C0.083,6.775,6.773,0.083,15,0.083S29.917,6.775,29.917,15
		C29.917,23.227,23.225,29.917,15,29.917z M15,1.083C7.326,1.083,1.083,7.326,1.083,15S7.326,28.917,15,28.917
		S28.917,22.674,28.917,15S22.674,1.083,15,1.083z"/>
</g>
<g id="For-You-Copy_1_">
	<path fill="#F90D0D" d="M15.004,23.809l-0.536-0.336C5.367,17.76,5.977,12.741,6.38,11.338c0.585-2.035,2.333-3.35,4.453-3.35
		c1.5,0,2.946,0.652,4.163,1.859c1.22-1.131,2.64-1.742,4.086-1.742c2.087,0,3.811,1.287,4.393,3.279
		c0.405,1.387,1.03,6.358-7.937,12.083L15.004,23.809z"/>
</g>
</svg>
