<?xml version="1.0" encoding="UTF-8" standalone="no"?>
<svg width="18px" height="18px" viewBox="0 0 18 18" version="1.1" xmlns="http://www.w3.org/2000/svg" xmlns:xlink="http://www.w3.org/1999/xlink">
    <!-- Generator: Sketch 40.2 (33826) - http://www.bohemiancoding.com/sketch -->
    <title>Clear</title>
    <desc>Created with Sketch.</desc>
    <defs></defs>
    <g id="Page-1" stroke="none" stroke-width="1" fill="none" fill-rule="evenodd">
        <g id="Clear" fill="#8C8C8C">
            <path d="M10.5,8.77123617 L12.25,10.5212362 L13,11.2712362 L11.5,12.7712362 L10.75,12.0212362 L9,10.2712362 L7.25,12.0212362 L6.5,12.7712362 L5,11.2712362 L5.75,10.5212362 L7.5,8.77123617 L5.75,7.02123617 L5,6.27123617 L6.5,4.77123617 L7.25,5.52123617 L9,7.27123617 L10.75,5.52123617 L11.5,4.77123617 L13,6.27123617 L12.25,7.02123617 L10.5,8.77123617 Z M9,16 C12.8659932,16 16,12.8659932 16,9 C16,5.13400675 12.8659932,2 9,2 C5.13400675,2 2,5.13400675 2,9 C2,12.8659932 5.13400675,16 9,16 Z" id="Combined-Shape"></path>
        </g>
    </g>
</svg>