<?xml version="1.0" encoding="utf-8"?>
<!-- Generator: Adobe Illustrator 16.0.0, SVG Export Plug-In . SVG Version: 6.00 Build 0)  -->
<!DOCTYPE svg PUBLIC "-//W3C//DTD SVG 1.1//EN" "http://www.w3.org/Graphics/SVG/1.1/DTD/svg11.dtd">
<svg version="1.1" id="Layer_1" xmlns="http://www.w3.org/2000/svg" xmlns:xlink="http://www.w3.org/1999/xlink" x="0px" y="0px"
	 width="30px" height="30px" viewBox="0 0 30 30" enable-background="new 0 0 30 30" xml:space="preserve">
<title>Store</title>
<desc>Created with Sketch.</desc>
<g id="Page-1">
	<g id="Store-">
		<path fill="#333333" d="M14.714,24.48l-0.737-0.805C13.733,23.409,8,17.097,8,12.6C8,8.899,10.949,6,14.714,6
			s6.714,2.899,6.714,6.6c0,4.497-5.732,10.809-5.977,11.076L14.714,24.48z M14.714,8C12.071,8,10,10.021,10,12.6
			c0,2.668,2.937,6.747,4.714,8.876c1.777-2.13,4.714-6.208,4.714-8.876C19.429,10.021,17.358,8,14.714,8z M14.714,15.601
			c-1.705,0-3.041-1.318-3.041-3s1.336-3,3.041-3c1.705,0,3.041,1.318,3.041,3S16.419,15.601,14.714,15.601z M14.714,11.6
			c-0.593,0-1.041,0.43-1.041,1s0.448,1,1.041,1s1.041-0.43,1.041-1S15.308,11.6,14.714,11.6z"/>
	</g>
</g>
</svg>
