<?xml version="1.0" encoding="UTF-8" standalone="no"?>
<svg width="16px" height="16px" viewBox="0 0 16 16" version="1.1" xmlns="http://www.w3.org/2000/svg" xmlns:xlink="http://www.w3.org/1999/xlink">
    <!-- Generator: Sketch 41.2 (35397) - http://www.bohemiancoding.com/sketch -->
    <title>Page 1</title>
    <desc>Created with Sketch.</desc>
    <defs></defs>
    <g id="Desktop---Wishlist" stroke="none" stroke-width="1" fill="none" fill-rule="evenodd">
        <g id="RWD---Wishlist---Empty" transform="translate(-1205.000000, -159.000000)" fill="#333333">
            <path d="M1213.00003,169.933847 C1211.37969,169.933847 1210.06615,168.62025 1210.06615,167.000028 C1210.06615,165.379694 1211.37969,164.066096 1213.00003,164.066096 C1214.62025,164.066096 1215.93385,165.379694 1215.93385,167.000028 C1215.93385,168.620306 1214.62025,169.933847 1213.00003,169.933847 M1218.85385,169.424667 C1218.85397,169.424441 1218.85408,169.424329 1218.85408,169.424103 C1219.03488,168.988211 1219.39184,168.649396 1219.83647,168.491264 L1221,168.07747 L1221,165.922643 L1219.83574,165.508624 C1219.39179,165.35083 1219.03459,165.011733 1218.85425,164.576461 C1218.85414,164.576348 1218.85402,164.576122 1218.85402,164.575897 C1218.673,164.139666 1218.68569,163.647116 1218.88836,163.220582 L1219.41873,162.10503 L1217.89497,160.581379 L1216.7797,161.111531 C1216.35339,161.314256 1215.86011,161.326997 1215.42405,161.146202 C1215.42382,161.145976 1215.4236,161.145976 1215.42348,161.145976 C1214.98787,160.965407 1214.64945,160.608665 1214.49143,160.164372 L1214.07741,159 L1211.92259,159 L1211.50845,160.164372 C1211.35055,160.608214 1211.01168,160.96552 1210.57646,161.145976 C1210.57635,161.145976 1210.57612,161.146089 1210.5759,161.146202 C1210.13955,161.32711 1209.647,161.314425 1209.22036,161.111644 L1208.10497,160.581379 L1206.58127,162.10503 L1207.11153,163.220356 C1207.31426,163.646665 1207.32688,164.139948 1207.14609,164.576122 C1207.14598,164.576235 1207.14598,164.576348 1207.14575,164.576686 C1206.96529,165.012071 1206.60855,165.35066 1206.16437,165.508624 L1205,165.922643 L1205,168.07747 L1206.16437,168.491489 C1206.60821,168.649396 1206.96541,168.98838 1207.14586,169.423539 C1207.14598,169.423765 1207.14598,169.42399 1207.14609,169.424103 C1207.327,169.860447 1207.31431,170.352997 1207.11164,170.779644 L1206.58127,171.895139 L1208.10503,173.418677 L1209.22041,172.888638 C1209.64672,172.685913 1210.14,172.673285 1210.57618,172.85408 C1210.57629,172.854193 1210.57652,172.854305 1210.57663,172.854305 C1211.01207,173.034875 1211.35055,173.391392 1211.50851,173.835684 L1211.92264,175 L1214.07747,175 L1214.48895,173.843126 C1214.64816,173.395112 1214.99018,173.03448 1215.42918,172.851938 C1215.4294,172.851825 1215.42963,172.851825 1215.42985,172.851712 C1215.86203,172.671932 1216.3499,172.684334 1216.7726,172.885199 L1217.89503,173.418677 L1219.41879,171.895139 L1218.88819,170.778967 C1218.68569,170.353053 1218.67317,169.860334 1218.85385,169.424667" id="Page-1"></path>
        </g>
    </g>
</svg>