<?xml version="1.0" encoding="utf-8"?>
<!-- Generator: Adobe Illustrator 16.0.0, SVG Export Plug-In . SVG Version: 6.00 Build 0)  -->
<!DOCTYPE svg PUBLIC "-//W3C//DTD SVG 1.1//EN" "http://www.w3.org/Graphics/SVG/1.1/DTD/svg11.dtd">
<svg version="1.1" id="Layer_1" xmlns="http://www.w3.org/2000/svg" xmlns:xlink="http://www.w3.org/1999/xlink" x="0px" y="0px"
	 width="30px" height="30px" viewBox="0 0 30 30" enable-background="new 0 0 30 30" xml:space="preserve">
<title>Wishlist</title>
<desc>Created with Sketch.</desc>
<g id="Oval-3">
	<path fill="#F90D0D" d="M15,29.917C6.774,29.917,0.083,23.226,0.083,15C0.083,6.775,6.774,0.083,15,0.083S29.917,6.775,29.917,15
		C29.917,23.226,23.225,29.917,15,29.917z M15,1.083C7.326,1.083,1.083,7.326,1.083,15S7.326,28.917,15,28.917
		c7.674,0,13.917-6.243,13.917-13.917S22.674,1.083,15,1.083z"/>
</g>
<g id="For-You-Copy">
	<path fill="#F90D0D" d="M15.004,23.809l-0.536-0.337C5.367,17.76,5.976,12.741,6.38,11.338c0.585-2.035,2.333-3.35,4.453-3.35
		c1.5,0,2.947,0.653,4.163,1.86c1.22-1.131,2.64-1.743,4.086-1.743c2.087,0,3.811,1.288,4.393,3.28
		c0.405,1.387,1.03,6.358-7.937,12.083L15.004,23.809z M10.833,9.988c-1.205,0-2.198,0.747-2.531,1.903
		c-0.612,2.127,0.849,5.722,6.693,9.543c5.748-3.823,7.173-7.39,6.56-9.489c-0.331-1.135-1.278-1.841-2.473-1.841
		c-1.165,0-2.352,0.662-3.341,1.863l-0.801,0.974l-0.765-1.002C13.212,10.681,12.026,9.988,10.833,9.988z"/>
</g>
</svg>
