<?xml version="1.0" encoding="utf-8"?>
<!-- Generator: Adobe Illustrator 16.0.0, SVG Export Plug-In . SVG Version: 6.00 Build 0)  -->
<!DOCTYPE svg PUBLIC "-//W3C//DTD SVG 1.1//EN" "http://www.w3.org/Graphics/SVG/1.1/DTD/svg11.dtd">
<svg version="1.1" id="Layer_1" xmlns="http://www.w3.org/2000/svg" xmlns:xlink="http://www.w3.org/1999/xlink" x="0px" y="0px"
	 width="32px" height="32px" viewBox="0 0 32 32" enable-background="new 0 0 32 32" xml:space="preserve">
<title>favorite</title>
<desc>Created with Sketch.</desc>
<g id="Oval-3">
	<path fill="#F90D0D" d="M16.032,31.667h-0.033c-1.018,0-2.034-0.098-3.021-0.292l0.192-0.98c0.923,0.181,1.875,0.272,2.828,0.272
		L16.032,31.667z M19.087,31.363l-0.197-0.98c0.943-0.189,1.868-0.473,2.749-0.84l0.385,0.924
		C21.083,30.858,20.095,31.16,19.087,31.363z M10.038,30.492c-0.946-0.39-1.858-0.875-2.71-1.442l0.554-0.832
		c0.798,0.531,1.652,0.985,2.537,1.351L10.038,30.492z M24.728,29.013l-0.557-0.83c0.794-0.533,1.54-1.148,2.217-1.828l0.709,0.705
		C26.373,27.786,25.576,28.443,24.728,29.013z M4.952,27.107c-0.724-0.721-1.382-1.517-1.955-2.366l0.829-0.559
		c0.537,0.795,1.153,1.541,1.831,2.216L4.952,27.107z M29.041,24.686l-0.832-0.555c0.531-0.796,0.987-1.649,1.354-2.536l0.924,0.383
		C30.095,22.925,29.608,23.836,29.041,24.686z M1.54,22.039c-0.396-0.945-0.698-1.934-0.898-2.936l0.98-0.197
		c0.188,0.938,0.471,1.862,0.841,2.748L1.54,22.039z M31.372,19.038l-0.98-0.193c0.183-0.929,0.275-1.886,0.275-2.845l1.001-0.017
		l-0.008,0.099C31.667,17.023,31.568,18.045,31.372,19.038z M0.333,16.048V16c0-1.011,0.097-2.022,0.288-3.005l0.981,0.19
		c-0.179,0.92-0.27,1.867-0.27,2.814L0.333,16.048z M30.386,13.124c-0.188-0.943-0.471-1.868-0.837-2.749l0.924-0.384
		c0.392,0.941,0.691,1.929,0.894,2.937L30.386,13.124z M2.426,10.433l-0.925-0.38c0.388-0.944,0.872-1.857,1.439-2.711l0.833,0.553
		C3.243,8.695,2.789,9.549,2.426,10.433z M28.191,7.843c-0.533-0.795-1.147-1.542-1.826-2.22l0.707-0.708
		c0.725,0.724,1.381,1.522,1.949,2.371L28.191,7.843z M5.591,5.667l-0.71-0.704c0.721-0.727,1.517-1.386,2.365-1.958l0.56,0.829
		C7.011,4.37,6.266,4.987,5.591,5.667z M24.143,3.799c-0.797-0.533-1.648-0.989-2.533-1.355l0.383-0.924
		c0.944,0.392,1.855,0.878,2.707,1.448L24.143,3.799z M10.333,2.468L9.946,1.546c0.944-0.396,1.932-0.7,2.935-0.902l0.198,0.98
		C12.14,1.813,11.216,2.097,10.333,2.468z M18.86,1.612c-0.937-0.185-1.899-0.279-2.861-0.279l-0.044-0.689l0.033-0.311
		c0,0,0.001,0,0.002,0c1.038,0,2.065,0.1,3.064,0.297L18.86,1.612z"/>
</g>
<g id="For-You-Copy_1_">
	<path fill="#F90D0D" d="M16.005,25.267l-0.564-0.354c-9.575-6.009-8.934-11.289-8.509-12.765c0.616-2.141,2.455-3.524,4.684-3.524
		c1.578,0,3.101,0.687,4.379,1.957c1.284-1.19,2.777-1.834,4.299-1.834c2.196,0,4.009,1.355,4.621,3.451
		c0.427,1.459,1.084,6.688-8.349,12.711L16.005,25.267z M11.616,10.727c-1.267,0-2.312,0.786-2.663,2.002
		c-0.644,2.237,0.893,6.02,7.042,10.04c6.047-4.022,7.546-7.774,6.9-9.982c-0.348-1.194-1.345-1.937-2.602-1.937
		c-1.226,0-2.474,0.697-3.515,1.96l-0.843,1.024l-0.805-1.054C14.12,11.457,12.871,10.727,11.616,10.727z"/>
</g>
</svg>
