<?xml version="1.0" encoding="UTF-8" standalone="no"?>
<svg width="18px" height="18px" viewBox="0 0 18 18" version="1.1" xmlns="http://www.w3.org/2000/svg" xmlns:xlink="http://www.w3.org/1999/xlink">
    <!-- Generator: Sketch 40.2 (33826) - http://www.bohemiancoding.com/sketch -->
    <title>Alert</title>
    <desc>Created with Sketch.</desc>
    <defs></defs>
    <g id="Page-1" stroke="none" stroke-width="1" fill="none" fill-rule="evenodd">
        <g id="Alert" fill="#CC3300">
            <path d="M7.66820138,2.67278736 C8.26028035,1.77573755 9.73970882,1.77573755 10.3317878,2.67278736 L14.0618852,8.32696028 L17.7919827,13.9811332 C18.3832927,14.878183 17.6435785,16 16.4601895,16 L8.99999458,16 L1.5405686,16 C0.356410676,16 -0.383303559,14.878183 0.208006468,13.9811332 L3.93810393,8.32696028 L7.66820138,2.67278736 Z M10,11 L8,11 L8,6 L10,6 L10,11 Z M8,13 C8,12.8623182 8.02536207,12.7318847 8.07608696,12.6086957 C8.12681185,12.4855066 8.19746332,12.3786236 8.28804348,12.2880435 C8.37862364,12.1974633 8.48550663,12.1268118 8.60869565,12.076087 C8.73188467,12.0253621 8.86231815,12 9,12 C9.13768185,12 9.26811533,12.0253621 9.39130435,12.076087 C9.51449337,12.1268118 9.62137636,12.1974633 9.71195652,12.2880435 C9.80253668,12.3786236 9.87318815,12.4855066 9.92391304,12.6086957 C9.97463793,12.7318847 10,12.8623182 10,13 C10,13.1376818 9.97463793,13.2681153 9.92391304,13.3913043 C9.87318815,13.5144934 9.80253668,13.6213764 9.71195652,13.7119565 C9.62137636,13.8025367 9.51449337,13.8731882 9.39130435,13.923913 C9.26811533,13.9746379 9.13768185,14 9,14 C8.86231815,14 8.73188467,13.9746379 8.60869565,13.923913 C8.48550663,13.8731882 8.37862364,13.8025367 8.28804348,13.7119565 C8.19746332,13.6213764 8.12681185,13.5144934 8.07608696,13.3913043 C8.02536207,13.2681153 8,13.1376818 8,13 Z" id="Combined-Shape"></path>
        </g>
    </g>
</svg>