<?xml version="1.0" encoding="UTF-8" standalone="no"?>
<svg width="18px" height="18px" viewBox="0 0 18 18" version="1.1" xmlns="http://www.w3.org/2000/svg" xmlns:xlink="http://www.w3.org/1999/xlink">
    <!-- Generator: Sketch 40.2 (33826) - http://www.bohemiancoding.com/sketch -->
    <title>Warning</title>
    <desc>Created with Sketch.</desc>
    <defs>
        <circle id="path-1" cx="9" cy="9" r="7"></circle>
        <mask id="mask-2" maskContentUnits="userSpaceOnUse" maskUnits="objectBoundingBox" x="0" y="0" width="14" height="14" fill="white">
            <use xlink:href="#path-1"></use>
        </mask>
    </defs>
    <g id="Page-1" stroke="none" stroke-width="1" fill="none" fill-rule="evenodd">
        <g id="Warning">
            <use id="Oval-4" stroke="#CC3300" mask="url(#mask-2)" stroke-width="2" xlink:href="#path-1"></use>
            <path d="M10,10 L8,10 L8,5 L10,5 L10,10 Z M8,12 C8,11.8623182 8.02536207,11.7318847 8.07608696,11.6086957 C8.12681185,11.4855066 8.19746332,11.3786236 8.28804348,11.2880435 C8.37862364,11.1974633 8.48550663,11.1268118 8.60869565,11.076087 C8.73188467,11.0253621 8.86231815,11 9,11 C9.13768185,11 9.26811533,11.0253621 9.39130435,11.076087 C9.51449337,11.1268118 9.62137636,11.1974633 9.71195652,11.2880435 C9.80253668,11.3786236 9.87318815,11.4855066 9.92391304,11.6086957 C9.97463793,11.7318847 10,11.8623182 10,12 C10,12.1376818 9.97463793,12.2681153 9.92391304,12.3913043 C9.87318815,12.5144934 9.80253668,12.6213764 9.71195652,12.7119565 C9.62137636,12.8025367 9.51449337,12.8731882 9.39130435,12.923913 C9.26811533,12.9746379 9.13768185,13 9,13 C8.86231815,13 8.73188467,12.9746379 8.60869565,12.923913 C8.48550663,12.8731882 8.37862364,12.8025367 8.28804348,12.7119565 C8.19746332,12.6213764 8.12681185,12.5144934 8.07608696,12.3913043 C8.02536207,12.2681153 8,12.1376818 8,12 Z" id="Combined-Shape" fill="#CC3300"></path>
        </g>
    </g>
</svg>