<?xml version="1.0" encoding="UTF-8"?>
<svg width="245px" height="245px" viewBox="0 0 245 245" version="1.1" xmlns="http://www.w3.org/2000/svg" xmlns:xlink="http://www.w3.org/1999/xlink">
    <!-- Generator: Sketch 46.2 (44496) - http://www.bohemiancoding.com/sketch -->
    <title>im_ImageNotFound</title>
    <desc>Created with Sketch.</desc>
    <defs></defs>
    <g id="App---PLP" stroke="none" stroke-width="1" fill="none" fill-rule="evenodd">
        <g id="PLP---Image-Not-Found" transform="translate(-65.000000, -138.000000)">
            <g id="Product-Tile" transform="translate(20.000000, 129.000000)">
                <g id="im_ImageNotFound" transform="translate(45.000000, 9.000000)">
                    <rect id="Rectangle" fill="#FFFFFF" x="0" y="0" width="245" height="245"></rect>
                    <path d="M63.1480003,118.504 L64.6600003,118.504 L64.6600003,127 L63.1480003,127 L63.1480003,118.504 Z M66.7560003,118.504 L69.0600003,118.504 L71.3280003,124.456 L73.6200003,118.504 L75.9000003,118.504 L75.9000003,127 L74.4600003,127 L74.4600003,119.944 L74.4360003,119.944 L71.8560003,127 L70.8000003,127 L68.2200003,119.944 L68.1960003,119.944 L68.1960003,127 L66.7560003,127 L66.7560003,118.504 Z M80.7800002,118.504 L82.0880002,118.504 L85.7480002,127 L84.0200002,127 L83.2280002,125.056 L79.5440002,125.056 L78.7760002,127 L77.0840002,127 L80.7800002,118.504 Z M82.7000002,123.76 L81.3920002,120.304 L80.0600002,123.76 L82.7000002,123.76 Z M94.4440002,126.376 C93.3959949,126.936003 92.2240067,127.216 90.9280002,127.216 C90.2719969,127.216 89.6700029,127.110001 89.1220002,126.898 C88.5739974,126.685999 88.1020022,126.386002 87.7060002,125.998 C87.3099982,125.609998 87.0000013,125.144003 86.7760002,124.6 C86.5519991,124.055997 86.4400002,123.452003 86.4400002,122.788 C86.4400002,122.107997 86.5519991,121.490003 86.7760002,120.934 C87.0000013,120.377997 87.3099982,119.904002 87.7060002,119.512 C88.1020022,119.119998 88.5739974,118.818001 89.1220002,118.606 C89.6700029,118.393999 90.2719969,118.288 90.9280002,118.288 C91.5760034,118.288 92.1839973,118.365999 92.7520002,118.522 C93.320003,118.678001 93.8279979,118.955998 94.2760002,119.356 L93.1600002,120.484 C92.8879988,120.219999 92.5580021,120.016001 92.1700002,119.872 C91.7819982,119.727999 91.3720023,119.656 90.9400002,119.656 C90.499998,119.656 90.102002,119.733999 89.7460002,119.89 C89.3899984,120.046001 89.0840015,120.261999 88.8280002,120.538 C88.5719989,120.814001 88.3740009,121.135998 88.2340002,121.504 C88.0939995,121.872002 88.0240002,122.267998 88.0240002,122.692 C88.0240002,123.148002 88.0939995,123.567998 88.2340002,123.952 C88.3740009,124.336002 88.5719989,124.667999 88.8280002,124.948 C89.0840015,125.228001 89.3899984,125.447999 89.7460002,125.608 C90.102002,125.768001 90.499998,125.848 90.9400002,125.848 C91.3240021,125.848 91.6859985,125.812 92.0260002,125.74 C92.3660019,125.668 92.6679989,125.556001 92.9320002,125.404 L92.9320002,123.4 L91.1920002,123.4 L91.1920002,122.032 L94.4440002,122.032 L94.4440002,126.376 Z M96.4320001,118.504 L102.06,118.504 L102.06,119.872 L97.9440001,119.872 L97.9440001,121.96 L101.844,121.96 L101.844,123.328 L97.9440001,123.328 L97.9440001,125.632 L102.276,125.632 L102.276,127 L96.4320001,127 L96.4320001,118.504 Z M107.716,118.504 L109.72,118.504 L113.836,124.816 L113.86,124.816 L113.86,118.504 L115.372,118.504 L115.372,127 L113.452,127 L109.252,120.484 L109.228,120.484 L109.228,127 L107.716,127 L107.716,118.504 Z M117.012,122.788 C117.012,122.107997 117.123999,121.490003 117.348,120.934 C117.572001,120.377997 117.881998,119.904002 118.278,119.512 C118.674002,119.119998 119.145997,118.818001 119.694,118.606 C120.242003,118.393999 120.843997,118.288 121.5,118.288 C122.164003,118.28 122.771997,118.377999 123.324,118.582 C123.876003,118.786001 124.351998,119.083998 124.752,119.476 C125.152002,119.868002 125.463999,120.339997 125.688,120.892 C125.912001,121.444003 126.024,122.059997 126.024,122.74 C126.024,123.404003 125.912001,124.007997 125.688,124.552 C125.463999,125.096003 125.152002,125.563998 124.752,125.956 C124.351998,126.348002 123.876003,126.653999 123.324,126.874 C122.771997,127.094001 122.164003,127.208 121.5,127.216 C120.843997,127.216 120.242003,127.110001 119.694,126.898 C119.145997,126.685999 118.674002,126.386002 118.278,125.998 C117.881998,125.609998 117.572001,125.144003 117.348,124.6 C117.123999,124.055997 117.012,123.452003 117.012,122.788 Z M118.596,122.692 C118.596,123.148002 118.665999,123.567998 118.806,123.952 C118.946001,124.336002 119.143999,124.667999 119.4,124.948 C119.656001,125.228001 119.961998,125.447999 120.318,125.608 C120.674002,125.768001 121.071998,125.848 121.512,125.848 C121.952002,125.848 122.351998,125.768001 122.712,125.608 C123.072002,125.447999 123.379999,125.228001 123.636,124.948 C123.892001,124.667999 124.089999,124.336002 124.23,123.952 C124.370001,123.567998 124.44,123.148002 124.44,122.692 C124.44,122.267998 124.370001,121.872002 124.23,121.504 C124.089999,121.135998 123.892001,120.814001 123.636,120.538 C123.379999,120.261999 123.072002,120.046001 122.712,119.89 C122.351998,119.733999 121.952002,119.656 121.512,119.656 C121.071998,119.656 120.674002,119.733999 120.318,119.89 C119.961998,120.046001 119.656001,120.261999 119.4,120.538 C119.143999,120.814001 118.946001,121.135998 118.806,121.504 C118.665999,121.872002 118.596,122.267998 118.596,122.692 Z M129.404,119.872 L126.8,119.872 L126.8,118.504 L133.52,118.504 L133.52,119.872 L130.916,119.872 L130.916,127 L129.404,127 L129.404,119.872 Z M138.504,118.504 L143.988,118.504 L143.988,119.872 L140.016,119.872 L140.016,122.104 L143.76,122.104 L143.76,123.472 L140.016,123.472 L140.016,127 L138.504,127 L138.504,118.504 Z M145.136,122.788 C145.136,122.107997 145.247999,121.490003 145.472,120.934 C145.696001,120.377997 146.005998,119.904002 146.402,119.512 C146.798002,119.119998 147.269997,118.818001 147.818,118.606 C148.366003,118.393999 148.967997,118.288 149.624,118.288 C150.288003,118.28 150.895997,118.377999 151.448,118.582 C152.000003,118.786001 152.475998,119.083998 152.876,119.476 C153.276002,119.868002 153.587999,120.339997 153.812,120.892 C154.036001,121.444003 154.148,122.059997 154.148,122.74 C154.148,123.404003 154.036001,124.007997 153.812,124.552 C153.587999,125.096003 153.276002,125.563998 152.876,125.956 C152.475998,126.348002 152.000003,126.653999 151.448,126.874 C150.895997,127.094001 150.288003,127.208 149.624,127.216 C148.967997,127.216 148.366003,127.110001 147.818,126.898 C147.269997,126.685999 146.798002,126.386002 146.402,125.998 C146.005998,125.609998 145.696001,125.144003 145.472,124.6 C145.247999,124.055997 145.136,123.452003 145.136,122.788 Z M146.72,122.692 C146.72,123.148002 146.789999,123.567998 146.93,123.952 C147.070001,124.336002 147.267999,124.667999 147.524,124.948 C147.780001,125.228001 148.085998,125.447999 148.442,125.608 C148.798002,125.768001 149.195998,125.848 149.636,125.848 C150.076002,125.848 150.475998,125.768001 150.836,125.608 C151.196002,125.447999 151.503999,125.228001 151.76,124.948 C152.016001,124.667999 152.213999,124.336002 152.354,123.952 C152.494001,123.567998 152.564,123.148002 152.564,122.692 C152.564,122.267998 152.494001,121.872002 152.354,121.504 C152.213999,121.135998 152.016001,120.814001 151.76,120.538 C151.503999,120.261999 151.196002,120.046001 150.836,119.89 C150.475998,119.733999 150.076002,119.656 149.636,119.656 C149.195998,119.656 148.798002,119.733999 148.442,119.89 C148.085998,120.046001 147.780001,120.261999 147.524,120.538 C147.267999,120.814001 147.070001,121.135998 146.93,121.504 C146.789999,121.872002 146.72,122.267998 146.72,122.692 Z M162.592,123.88 C162.592,124.392003 162.504001,124.853998 162.328,125.266 C162.151999,125.678002 161.912001,126.027999 161.608,126.316 C161.303998,126.604001 160.944002,126.825999 160.528,126.982 C160.111998,127.138001 159.660002,127.216 159.172,127.216 C158.683997,127.216 158.232002,127.138001 157.816,126.982 C157.399998,126.825999 157.038001,126.604001 156.73,126.316 C156.421998,126.027999 156.182001,125.678002 156.01,125.266 C155.837999,124.853998 155.752,124.392003 155.752,123.88 L155.752,118.504 L157.264,118.504 L157.264,123.832 C157.264,124.040001 157.295999,124.257999 157.36,124.486 C157.424,124.714001 157.529999,124.923999 157.678,125.116 C157.826001,125.308001 158.021999,125.465999 158.266,125.59 C158.510001,125.714001 158.811998,125.776 159.172,125.776 C159.532002,125.776 159.833999,125.714001 160.078,125.59 C160.322001,125.465999 160.517999,125.308001 160.666,125.116 C160.814001,124.923999 160.919999,124.714001 160.984,124.486 C161.048,124.257999 161.08,124.040001 161.08,123.832 L161.08,118.504 L162.592,118.504 L162.592,123.88 Z M164.652,118.504 L166.656,118.504 L170.772,124.816 L170.796,124.816 L170.796,118.504 L172.308,118.504 L172.308,127 L170.388,127 L166.188,120.484 L166.164,120.484 L166.164,127 L164.652,127 L164.652,118.504 Z M174.404,118.504 L177.752,118.504 C178.312003,118.504 178.851997,118.589999 179.372,118.762 C179.892002,118.934001 180.351998,119.195998 180.752,119.548 C181.152002,119.900002 181.471999,120.341997 181.712,120.874 C181.952001,121.406003 182.072,122.031996 182.072,122.752 C182.072,123.480004 181.934001,124.109997 181.658,124.642 C181.381998,125.174003 181.026002,125.613998 180.59,125.962 C180.153998,126.310002 179.670002,126.569999 179.138,126.742 C178.605997,126.914001 178.084002,127 177.572,127 L174.404,127 L174.404,118.504 Z M177.044,125.632 C177.516002,125.632 177.961998,125.578001 178.382,125.47 C178.802002,125.361999 179.167998,125.194001 179.48,124.966 C179.792001,124.737999 180.037999,124.442002 180.218,124.078 C180.398001,123.713998 180.488,123.272003 180.488,122.752 C180.488,122.239997 180.408001,121.800002 180.248,121.432 C180.087999,121.063998 179.866001,120.766001 179.582,120.538 C179.297998,120.309999 178.962002,120.142001 178.574,120.034 C178.185998,119.925999 177.760002,119.872 177.296,119.872 L175.916,119.872 L175.916,125.632 L177.044,125.632 Z" id="Image-Not-Found" fill="#999999"></path>
                </g>
            </g>
        </g>
    </g>
</svg>