<svg id="Layer_1" data-name="Layer 1" xmlns="http://www.w3.org/2000/svg" viewBox="0 0 121.46 43.89"><defs><style>.cls-1{fill:#00adee;}</style></defs><title>TCP-Logo-125x44</title><path class="cls-1" d="M1.77,42.26h.7c1.8,0,2.58-.66,2.58-3.2V20c0-2.54-.78-3.2-2.58-3.2h-.7V15.63c1.37,0,3.24.12,5,.12,2.11,0,4.26-.12,6.36-.12,6.29,0,8.24,4.3,8.24,7.38,0,3.48-2.11,7.46-9.29,7.46-1.21,0-2.38-.12-3.59-.24v7.89c0,3.71.66,4.14,2.23,4.14h1.13v1.17c-1.72,0-3.36-.12-5.08-.12s-3.63.08-5,.12ZM8.49,28a8.87,8.87,0,0,0,4,.94c3.87,0,5.11-2.89,5.11-5.23,0-4.57-2.5-7-6.68-7A21.08,21.08,0,0,0,8.49,17Z" transform="translate(-1.77 -0.05)"/><path class="cls-1" d="M22.31,42.26H23c1.79,0,2.58-.66,2.58-3.2V20c0-2.54-.78-3.2-2.58-3.2h-.7V15.63c1.37,0,3.24.12,5,.12s3.36-.08,5.19-.12V16.8h-.9c-1.8,0-2.58.66-2.58,3.2V38.16c0,2.93.63,3.94,5.43,3.94,6.4,0,7.15-1.13,7.85-5.58h1.21l-.23,6.91c-3.43,0-7.85-.12-11.28-.12-4.57,0-8.32.08-9.68.12Z" transform="translate(-1.77 -0.05)"/><path class="cls-1" d="M45.79,42.26h.47c2.15,0,3-1,4.22-4.22l8.94-23.51h.74l10,23.93c.94,2.26,2.15,3.79,3.94,3.79H75v1.17c-1.48-.08-3.28-.12-5.31-.12s-3.94,0-5.39.12V42.26h1c1.25,0,2-.43,2-1.25a6.78,6.78,0,0,0-.55-2l-2.85-7h-9.1L52.66,38.2A9.84,9.84,0,0,0,52,41c0,.7.39,1.25,1.6,1.25h.86v1.17q-2-.12-4.8-.12c-1.48,0-2.93,0-3.87.12ZM58.87,19.85l-3.63,10.7h8Z" transform="translate(-1.77 -0.05)"/><path class="cls-1" d="M98.63,22.62H98c-1-2-2.89-5.86-10.27-5.86-7.93,0-10.46,7.3-10.46,13,0,9.29,6.6,12.49,10.66,12.49,6.13,0,8.94-3.48,10.78-5.78H99v3a14.8,14.8,0,0,1-10.74,4.45c-8.86,0-14.88-5.58-14.88-13.43,0-7.54,5.27-15.38,14.52-15.38a30.51,30.51,0,0,1,8.94,1.64,11.91,11.91,0,0,0,2,.55Z" transform="translate(-1.77 -0.05)"/><path class="cls-1" d="M102.1,42.26h.7c1.8,0,2.58-.66,2.58-3.2V20c0-2.54-.78-3.2-2.58-3.2h-.7V15.63c1.25,0,5.7.12,9.61.12,4.61,0,6.44-.08,9.17-.12.08,2.42.16,4.53.35,6.64h-1.09c-.39-2.73-.66-5.15-7.57-5.15h-3.75V28.17h3.4c4.76,0,4.92-.82,5-3.12h1.09c0,.9-.08,2.11-.08,3.83,0,1.52,0,2.77.08,3.56h-1.09c-.2-2-.23-2.77-4.65-2.77h-3.75V39c0,2.34.86,2.93,3.36,2.93h1.05c6.56,0,8.28-1.25,8.9-5.58h1.09c-.27,2.42-.51,4.68-.78,7.07-2.34,0-6.52-.12-10.74-.12-4.84,0-8.36.08-9.61.12Z" transform="translate(-1.77 -0.05)"/><path class="cls-1" d="M6,.31c-1.64,0-3.63,0-4,0H1.8V2.89h.74V2.74a2.4,2.4,0,0,1,.29-1.17A1.27,1.27,0,0,1,4,1.12H5.26V7.84c0,.63-.06.81-.12.9s-.17.14-.53.14H4.16v.7h.57L6,9.55l1.25,0h.57v-.7H7.34c-.36,0-.47-.05-.53-.14a2,2,0,0,1-.12-.9V1.12H8a1.27,1.27,0,0,1,1.14.45A2.41,2.41,0,0,1,9.4,2.74v.15h.74V.27H10C9.55.29,7.47.31,6,.31Z" transform="translate(-1.77 -0.05)"/><path class="cls-1" d="M20.74.28l-1.28,0-1.08,0-.56,0h-.16V1h.53c.24,0,.34,0,.41.15a2.24,2.24,0,0,1,.15,1V4.33h-4.9V2.15a2.23,2.23,0,0,1,.15-1c.07-.11.17-.15.41-.15h.53V.27h-.16l-.56,0-1.08,0-1.28,0h-.5V1h.39a.63.63,0,0,1,.51.16,1.14,1.14,0,0,1,.16.72V8a1.14,1.14,0,0,1-.16.72.63.63,0,0,1-.51.16h-.39v.7h.49l1.28,0,1.08,0,.56,0h.16v-.7h-.53c-.24,0-.35,0-.41-.15a2.23,2.23,0,0,1-.15-1V5.18h4.9V7.71a2.24,2.24,0,0,1-.15,1c-.07.11-.17.15-.41.15h-.53v.7h.16l.56,0,1.08,0,1.29,0h.49v-.7h-.39a.63.63,0,0,1-.51-.16A1.14,1.14,0,0,1,20.18,8V1.85a1.14,1.14,0,0,1,.16-.72A.63.63,0,0,1,20.85,1h.39V.27h-.49Z" transform="translate(-1.77 -0.05)"/><path class="cls-1" d="M29.2,7h-.14l0,.14a1.68,1.68,0,0,1-.65,1.32,4,4,0,0,1-2.07.35H26a1.2,1.2,0,0,1-.74-.15c-.13-.11-.18-.3-.18-.64V5.12h1.05a2.24,2.24,0,0,1,1.16.18c.13.1.15.25.18.56V6h.67V5.85c0-.15,0-.55,0-1.14s0-.85,0-1.23V3.32h-.67v.15c0,.37,0,.55-.18.66A2.45,2.45,0,0,1,26,4.33h-.94V1.07h1.05a2.84,2.84,0,0,1,1.9.45,1.66,1.66,0,0,1,.39,1.05v0l0,.14h.67l0-.17C29,1.88,29,1.19,29,.43V.27h-.9c-.58,0-1.18,0-2.22,0-1.24,0-2.68,0-3.1,0h-.16V1H23a.63.63,0,0,1,.51.16,1.14,1.14,0,0,1,.16.72V8a1.14,1.14,0,0,1-.16.72.63.63,0,0,1-.51.16h-.39v.7h.16c.45,0,1.6,0,3.1,0,1.25,0,2.47,0,3.27,0h.34l0-.14c.05-.44.1-.88.14-1.3l.11-1,0-.18H29.2Z" transform="translate(-1.77 -0.05)"/><path class="cls-1" d="M46.4,7h-.08l0,.06A4,4,0,0,1,42.91,8.9a3,3,0,0,1-1-.2A3.31,3.31,0,0,1,40.8,8,3.38,3.38,0,0,1,40,6.85,4.69,4.69,0,0,1,39.62,5a5.22,5.22,0,0,1,.71-2.72A2.81,2.81,0,0,1,42.85,1a3.67,3.67,0,0,1,2.33.66A3.1,3.1,0,0,1,46,2.75h0l0,.09h.46V2.7L46.58,1V.83h-.15A2.47,2.47,0,0,1,46,.7L45.84.65l-.06,0A9.87,9.87,0,0,0,42.9.11a4.77,4.77,0,0,0-2.07.45,4.59,4.59,0,0,0-1.53,1.18A5.47,5.47,0,0,0,38,5.24c0,2.65,2,4.5,5,4.5a4.94,4.94,0,0,0,2.37-.58,5.48,5.48,0,0,0,1.2-.9h0l.05,0V7H46.4Z" transform="translate(-1.77 -0.05)"/><path class="cls-1" d="M57.22.28l-1.28,0-1.08,0-.56,0h-.16V1h.53c.24,0,.34,0,.41.15a2.24,2.24,0,0,1,.15,1V4.33h-4.9V2.15a2.23,2.23,0,0,1,.15-1c.07-.11.17-.15.41-.15h.53V.27h-.16l-.56,0-1.08,0-1.28,0h-.49V1h.39a.63.63,0,0,1,.51.15,1.14,1.14,0,0,1,.16.72V8a1.14,1.14,0,0,1-.16.72.63.63,0,0,1-.51.16h-.39v.7h.49l1.29,0,1.08,0,.56,0h.16v-.7h-.53c-.24,0-.35,0-.41-.15a2.23,2.23,0,0,1-.15-1V5.18h4.9V7.71a2.24,2.24,0,0,1-.15,1c-.07.11-.17.15-.41.15h-.53v.7h.16l.56,0,1.08,0,1.29,0h.49v-.7h-.39a.63.63,0,0,1-.51-.16A1.14,1.14,0,0,1,56.66,8V1.85a1.14,1.14,0,0,1,.16-.72A.63.63,0,0,1,57.33,1h.39V.27h-.49Z" transform="translate(-1.77 -0.05)"/><path class="cls-1" d="M62.22.29l-1.09,0-1.28,0h-.49V1h.39a.63.63,0,0,1,.51.15,1.14,1.14,0,0,1,.16.72V8a1.14,1.14,0,0,1-.16.72.63.63,0,0,1-.51.16h-.39v.7h.49l1.29,0,1.1,0,.52,0h.16v-.7h-.39A.64.64,0,0,1,62,8.73,1.14,1.14,0,0,1,61.84,8V1.85A1.14,1.14,0,0,1,62,1.13.64.64,0,0,1,62.52,1h.39V.27h-.16Z" transform="translate(-1.77 -0.05)"/><path class="cls-1" d="M71.17,7H71l0,.13c-.11.71-.22,1.11-.52,1.34a3.14,3.14,0,0,1-1.86.33c-1.53,0-1.6-.32-1.6-1.12V1.85a1.14,1.14,0,0,1,.16-.72A.64.64,0,0,1,67.71,1h.45V.27H68l-.62,0-1.06,0L65,.28h-.49V1h.39a.64.64,0,0,1,.51.16,1.14,1.14,0,0,1,.16.72V8a1.14,1.14,0,0,1-.16.72.63.63,0,0,1-.51.16h-.39v.7h.16c.49,0,1.69,0,3.13,0l2.65,0h1.15V9.43l.08-2.23V7h-.56Z" transform="translate(-1.77 -0.05)"/><path class="cls-1" d="M81.63,1.92A4.55,4.55,0,0,0,77.93.27L76.4.29l-1.52,0L73.6.28h-.49V1h.39a.63.63,0,0,1,.51.16,1.14,1.14,0,0,1,.16.72V8a1.14,1.14,0,0,1-.16.72.63.63,0,0,1-.51.16h-.39v.7h.49l1.29,0,1.38,0,1.19,0a6.21,6.21,0,0,0,2.49-.47,4.46,4.46,0,0,0,1.62-1.19,4.62,4.62,0,0,0,.87-1.54,4.9,4.9,0,0,0,.26-1.54,4.52,4.52,0,0,0-.25-1.43A4.81,4.81,0,0,0,81.63,1.92ZM77.28,8.78A3.15,3.15,0,0,1,75.9,8.6c-.25-.15-.3-.43-.3-.81V1.11c.5,0,1-.09,1.44-.09a4.46,4.46,0,0,1,1.92.4,3.58,3.58,0,0,1,1.27,1,4.45,4.45,0,0,1,.93,2.74C81.17,6.82,80.49,8.78,77.28,8.78Z" transform="translate(-1.77 -0.05)"/><path class="cls-1" d="M91,8.84a2.91,2.91,0,0,1-.79-1L88.63,5.22a2.82,2.82,0,0,0,1-.61,2.46,2.46,0,0,0,.71-1.84,2.66,2.66,0,0,0-.51-1.48A2.37,2.37,0,0,0,89,.57a3.2,3.2,0,0,0-1.43-.3l-.8,0-1.21,0-1.28,0h-.5V1h.39a.63.63,0,0,1,.51.15,1.14,1.14,0,0,1,.16.72V8a1.14,1.14,0,0,1-.16.72.63.63,0,0,1-.51.16h-.39v.7h.49l1.28,0,1.08,0,.56,0h.16v-.7h-.53c-.24,0-.35,0-.41-.15a2.24,2.24,0,0,1-.15-1V5.48c.81,0,.9.07,1.13.44l1.48,2.41a2.62,2.62,0,0,0,1.05,1.09,3.08,3.08,0,0,0,1.39.22h.87V9.06H92A2,2,0,0,1,91,8.84ZM88.31,4.29A2.2,2.2,0,0,1,87,4.68a3.57,3.57,0,0,1-.7,0V1.11a6.24,6.24,0,0,1,.64,0,1.82,1.82,0,0,1,1.59.77A2.23,2.23,0,0,1,88.86,3,1.53,1.53,0,0,1,88.31,4.29Z" transform="translate(-1.77 -0.05)"/><path class="cls-1" d="M99.68,7h-.14l0,.14a1.68,1.68,0,0,1-.65,1.32,4,4,0,0,1-2.07.35h-.34a1.2,1.2,0,0,1-.74-.15c-.13-.1-.18-.3-.18-.64V5.36h1.05a2.25,2.25,0,0,1,1.16.18c.13.1.15.25.18.56v.16h.66V6.09c0-.2,0-.61,0-1.14s0-.92,0-1.23V3.55h-.67V3.7c0,.37,0,.55-.18.66a2.45,2.45,0,0,1-1.28.19h-.94V1.07h1.05a2.84,2.84,0,0,1,1.9.45,1.66,1.66,0,0,1,.39,1.05v0l0,.14h.67l0-.17c-.06-.67-.09-1.34-.11-2.14V.27h-.9c-.58,0-1.18,0-2.22,0-1.24,0-2.68,0-3.1,0H93V1h.39a.63.63,0,0,1,.51.15,1.14,1.14,0,0,1,.16.72V8a1.15,1.15,0,0,1-.16.72.63.63,0,0,1-.51.16H93v.7h.16c.12,0,1.25,0,3.1,0,1.25,0,2.47,0,3.27,0h.34l0-.14c.05-.45.1-.9.15-1.34l.1-.95,0-.18h-.53Z" transform="translate(-1.77 -0.05)"/><path class="cls-1" d="M110.66.29l-.9,0-1,0h-.49V1h.31c.31,0,.46.06.55.25a3.39,3.39,0,0,1,.18,1.35l.07,4.75-5.68-7-.05-.06h-.38l-.69,0-.79,0h-.48V1h.51a.75.75,0,0,1,.57.16,1.19,1.19,0,0,1,.18.78c0,1.44,0,3.86-.08,5.52a3.58,3.58,0,0,1-.16,1.23c-.07.14-.17.22-.5.22h-.36v.7h.47l1.07,0,1,0h.53v-.7h-.41c-.43,0-.63-.12-.66-1.17,0-1.81-.07-3.64-.07-5.44l6,7.36,0,.06h.61V9.54l.23-7.36a2,2,0,0,1,.23-1,.45.45,0,0,1,.4-.16h.36V.27h-.16Z" transform="translate(-1.77 -0.05)"/><path class="cls-1" d="M113.85.05l-.13.07-1,.53-.22.12.2.15a1.24,1.24,0,0,1,.5,1,2,2,0,0,1-.69,1.28l-.16.17.22.09.32.13.09,0,.07-.06a2.72,2.72,0,0,0,1.23-2.11,2.37,2.37,0,0,0-.39-1.25Z" transform="translate(-1.77 -0.05)"/><path class="cls-1" d="M119.54,4.35l-1.16-.53a2.84,2.84,0,0,1-1-.73,1.3,1.3,0,0,1-.29-.86,1.24,1.24,0,0,1,.41-.93,1.67,1.67,0,0,1,1.14-.4,1.7,1.7,0,0,1,1.58.76,2.22,2.22,0,0,1,.28,1.07v.15h.74V.48l-.13,0-.42-.08a10.07,10.07,0,0,0-2-.26,3.14,3.14,0,0,0-2.16.79,2.5,2.5,0,0,0-.82,1.84,2.55,2.55,0,0,0,1.72,2.32l1.36.64a4,4,0,0,1,1,.62,1.45,1.45,0,0,1,.47,1.11,1.41,1.41,0,0,1-.54,1.13,2.1,2.1,0,0,1-1.32.43,2,2,0,0,1-1.33-.5,2,2,0,0,1-.66-1.31V7h-.69v.16l.05,2.07v.11l.11,0a8.54,8.54,0,0,0,2.31.32,4.51,4.51,0,0,0,1.43-.21,2.85,2.85,0,0,0,1-.6,2.74,2.74,0,0,0,.83-2.07C121.51,5.78,120.87,5,119.54,4.35Z" transform="translate(-1.77 -0.05)"/></svg>